Coordinates
version=1
nRows=17
nColumns=34
inDegrees=yes

Units are S.I. units (second, meters, Newtons, ...)
If the header above contains a line with 'inDegrees', this indicates whether rotational values are in degrees (yes) or radians (no).

endheader
time	pelvis_tilt	pelvis_list	pelvis_rotation	pelvis_tx	pelvis_ty	pelvis_tz	hip_flexion_r	hip_adduction_r	hip_rotation_r	knee_angle_r	ankle_angle_r	subtalar_angle_r	mtp_angle_r	hip_flexion_l	hip_adduction_l	hip_rotation_l	knee_angle_l	ankle_angle_l	subtalar_angle_l	mtp_angle_l	lumbar_extension	lumbar_bending	lumbar_rotation	arm_flex_r	arm_add_r	arm_rot_r	elbow_flex_r	pro_sup_r	arm_flex_l	arm_add_l	arm_rot_l	elbow_flex_l	pro_sup_l
     13.41666670	     -5.75571398	      6.97600373	    -95.06216319	      0.93573988	      0.90313299	     -0.21584782	     28.04409871	      4.75515842	     19.14826119	     70.50247082	    -15.57525145	    -35.00000000	      0.00000000	     21.88793137	      6.52992673	    -10.49204286	      0.00000000	    -19.36536826	      1.94097645	      0.00000000	    -15.03487305	     -5.87922067	     11.64179922	     17.99954128	    -36.32075197	     69.57406874	     57.57148514	     82.88219278	     10.31462089	    -30.45066403	     48.44157447	     38.78466156	     46.59020742
     13.43333330	     -5.57578319	      6.95910790	    -94.62058391	      0.94826963	      0.90532767	     -0.22282515	     29.84110199	      6.07539562	     20.20294552	     74.27470574	    -17.36926215	    -35.00000000	      0.00000000	     21.37814511	      7.71064821	    -11.22442147	      0.00000000	    -19.39353462	      0.84163481	      0.00000000	    -15.89502512	     -5.79427495	     11.10760031	     17.68384018	    -35.01532136	     69.74267764	     58.31954536	     82.85109389	     11.06505538	    -29.67463369	     48.30297623	     38.67147337	     46.67066470
     13.45000000	     -5.79184353	      7.23975712	    -94.05981186	      0.95493736	      0.90608840	     -0.22624018	     31.68171140	      7.66608563	     21.39292682	     76.81010565	    -19.23414221	    -35.00000000	      0.00000000	     21.12085135	      8.56612969	    -11.48790263	      0.00000000	    -19.20563456	      0.22129559	      0.00000000	    -16.30549064	     -5.32469414	     10.81137062	     16.76848076	    -33.43627995	     70.78564000	     60.24542027	     83.05258621	     11.76139067	    -28.77152274	     48.03013767	     38.48773501	     46.80590803
     13.46666670	     -6.25579975	      7.44875159	    -93.38396377	      0.95428170	      0.90645685	     -0.22548000	     33.06671034	      9.18475796	     22.28812887	     78.07848975	    -20.52499709	    -35.00000000	      0.00000000	     20.57215761	      9.11566562	    -11.57441843	      0.00000000	    -18.59463556	      0.23138107	      0.00000000	    -16.65946592	     -4.61734238	     10.63682358	     16.40921894	    -30.93180138	     72.24101004	     61.76939580	     83.57076354	     12.37271288	    -27.82775835	     47.71628985	     38.02438985	     46.96869894
     13.48333330	     -6.72591838	      7.60135315	    -92.72235776	      0.95027005	      0.90696462	     -0.22336282	     34.19155235	     10.45943906	     22.75278045	     78.51746012	    -20.59507181	    -35.00000000	      0.00000000	     19.77075396	      9.51558464	    -11.43701106	      0.00000000	    -18.37908674	      0.36137601	      0.00000000	    -17.06510469	     -4.11577803	     10.67559669	     16.04862661	    -28.17913516	     72.64490793	     62.59976590	     83.66093946	     13.05599699	    -27.31422608	     47.59669026	     38.19225652	     46.98297242
     13.50000000	     -7.30426512	      8.08873298	    -92.25528795	      0.94887819	      0.90984986	     -0.22335737	     35.71281128	     11.50049687	     22.64851337	     78.58050297	    -19.98506644	    -35.00000000	      0.00000000	     19.41965991	      9.59017318	    -12.04519569	      0.27236163	    -17.94664271	      2.26463292	      0.00000000	    -16.63352797	     -3.43100113	     10.37526582	     16.76662119	    -25.11039947	     74.77046067	     61.11813293	     84.93012046	     13.14951344	    -26.88108684	     46.49883459	     37.27641269	     47.04399351
     13.51666670	     -7.97985235	      8.34190096	    -91.82140543	      0.95236552	      0.91422210	     -0.22597995	     37.37316614	     11.74303378	     21.36535633	     78.16702960	    -18.56981098	    -35.00000000	      0.00000000	     18.91343028	      9.50549413	    -12.46785015	      0.53309649	    -17.57657531	      3.59855258	      0.00000000	    -16.71988728	     -2.72129760	     10.23728377	     17.11348555	    -22.47965149	     75.61174957	     59.50024592	     85.70379406	     13.24904581	    -26.63292836	     45.36418356	     37.45682051	     47.02266975
     13.53333330	     -8.60100123	      8.28132402	    -91.51282651	      0.95437584	      0.92183818	     -0.23047816	     39.17905873	     11.16472739	     18.63551963	     76.85476262	    -16.29615986	    -35.00000000	      0.00000000	     18.05733550	      9.13494026	    -13.30456991	      0.50380694	    -16.23716837	      5.14514337	      0.00000000	    -17.26349245	     -2.24624833	     10.03727123	     17.79059852	    -20.12726933	     76.80219483	     56.95824446	     86.74605451	     13.23930555	    -26.39108190	     42.97135317	     37.87357364	     46.90039779
     13.55000000	     -9.59362275	      7.77741063	    -90.43353425	      0.95190573	      0.92545230	     -0.23085953	     40.67961130	     10.70404425	     13.86591223	     74.50926463	    -15.03045597	    -35.00000000	      0.00000000	     16.93683376	      8.00795011	    -14.35156317	      1.32465624	    -13.34371724	      7.36962765	      0.00000000	    -18.33991224	     -1.42808182	      9.29357354	     18.00218869	    -18.50487498	     76.09201974	     53.64281528	     86.82015835	     13.66467865	    -26.73666105	     42.18433466	     38.33069427	     46.88975381
     13.56666670	     -8.66524551	      7.80261487	    -89.68419586	      0.94824580	      0.92426107	     -0.22778485	     44.75775624	      4.54284760	      4.06621059	     76.15351636	      6.97310657	     18.03559471	      0.00000000	     16.39003338	      9.10123435	    -16.96442475	      2.68009964	     -9.48689109	     11.51730188	      0.00000000	    -17.96461985	     -2.39276397	      8.02941843	     17.31963855	    -17.33167610	     74.79302066	     48.88600854	     86.59572163	     13.41791370	    -27.43197291	     41.26218527	     39.21167730	     46.86171618
     13.58333330	     -8.88474194	      7.28844395	    -88.14771801	      0.93842629	      0.92425147	     -0.22299209	     45.19023933	      1.12036368	     -4.96086658	     73.50637230	      1.84789182	     35.00000000	      0.00000000	     15.04979121	      8.79763756	    -17.78782885	      4.21769659	     -7.20673743	     14.44402746	      0.00000000	    -18.14169258	     -2.38579720	      6.70600268	     16.59541553	    -17.28793519	     73.52281270	     46.17721519	     86.14480215	     13.34016247	    -28.92671079	     40.81533898	     40.25990617	     46.85376049
     13.60000000	     -8.57630145	      6.98618499	    -86.94384243	      0.92593914	      0.92143260	     -0.21733211	     44.55260091	     -2.17160791	    -12.50833710	     69.78789077	     -9.67237705	     35.00000000	      0.00000000	     13.65234320	      8.75292221	    -19.16255353	      5.20487293	     -6.37235224	     19.21257904	      0.00000000	    -17.68301755	     -3.33040087	      5.45775763	     15.43769948	    -16.79374544	     71.99463328	     43.11392025	     85.36944680	     12.93042097	    -31.18855142	     40.40137637	     41.97492950	     46.76811301
     13.61666670	     -7.79002029	      6.43114403	    -85.75832604	      0.91534982	      0.91795956	     -0.21298201	     42.52413278	     -5.97364655	    -17.65553501	     64.44541245	    -15.47381213	     35.00000000	      0.00000000	     11.58357945	      9.29332745	    -19.16022728	      5.20327118	     -6.47685948	     21.79551190	      0.00000000	    -17.52053542	     -4.76257684	      3.91086098	     14.46759818	    -16.68904941	     70.60350386	     41.15820703	     84.43414058	     12.28299332	    -33.71664205	     40.14766470	     43.78514720	     46.57698960
     13.63333330	     -6.48953483	      5.94938360	    -84.42675831	      0.90783909	      0.91343966	     -0.20986934	     41.43200050	     -9.86311150	    -20.01687063	     60.81106727	    -16.20328435	     35.00000000	      0.00000000	      9.74178218	      9.97472062	    -19.03419022	      5.58643657	     -5.31636361	     24.02934659	      0.00000000	    -17.69653553	     -6.71700580	      2.21424175	     13.60536547	    -16.61571807	     69.13250735	     39.79210585	     83.29160217	     11.68977833	    -36.31731129	     39.90354320	     45.90134844	     46.24291979
     13.65000000	     -5.33421275	      5.52844289	    -83.10379673	      0.90569759	      0.91129002	     -0.21084300	     40.99479167	    -12.13735307	    -21.11334146	     57.36937045	    -13.59540801	     35.00000000	      0.00000000	      8.00004051	     10.34002343	    -18.70831434	      5.91979001	     -3.36426872	     24.72043154	      0.00000000	    -18.14438722	     -8.27157199	      0.52131436	     13.20083416	    -16.78528325	     67.87526345	     38.98085557	     82.46114302	     11.41517950	    -38.21165799	     39.89155054	     46.98574154	     45.98366214
     13.66666670	     -4.32754796	      5.30717272	    -81.95433301	      0.90968313	      0.91043266	     -0.21477814	     41.37178699	    -12.75111318	    -21.12398462	     54.90803859	     -8.32065987	     35.00000000	      0.00000000	      6.85043191	     10.64199172	    -18.75848544	      6.80873322	     -0.68540881	     25.29021683	      0.00000000	    -18.84873014	     -9.40514215	     -0.43201301	     12.30656287	    -17.30875337	     64.44205880	     38.46903970	     78.41940802	     11.67188384	    -39.17926309	     39.58543679	     48.56774075	     44.16775372
     13.68333330	     -3.87173252	      5.11625664	    -81.06161646	      0.91595811	      0.91077128	     -0.22014428	     41.71168771	    -11.74487424	    -19.78106715	     52.18926980	     -1.51400095	     35.00000000	      0.00000000	      6.01339966	     10.68157465	    -18.76919078	      7.80264141	      1.50389988	     25.21065235	      0.00000000	    -19.32221809	     -9.48710056	     -1.36159928	     12.49898136	    -18.21512352	     64.06877594	     37.74884078	     78.14642848	     11.88538625	    -39.09426807	     39.77648650	     48.68889775	     44.09280766
